<?xml version="1.0" encoding="UTF-8" standalone="no"?>
<!-- Generator: Adobe Illustrator 13.0.0, SVG Export Plug-In . SVG Version: 6.00 Build 14576)  -->

<svg
   xmlns:dc="http://purl.org/dc/elements/1.1/"
   xmlns:cc="http://creativecommons.org/ns#"
   xmlns:rdf="http://www.w3.org/1999/02/22-rdf-syntax-ns#"
   xmlns:svg="http://www.w3.org/2000/svg"
   xmlns="http://www.w3.org/2000/svg"
   xmlns:sodipodi="http://sodipodi.sourceforge.net/DTD/sodipodi-0.dtd"
   xmlns:inkscape="http://www.inkscape.org/namespaces/inkscape"
   version="1.1"
   id="Layer_1"
   x="0px"
   y="0px"
   width="793.322px"
   height="340.809px"
   viewBox="0 0 793.322 340.809"
   enable-background="new 0 0 793.322 340.809"
   xml:space="preserve"
   inkscape:version="0.91 r13725"
   sodipodi:docname="apps logo.svg"><metadata
     id="metadata55"><rdf:RDF><cc:Work
         rdf:about=""><dc:format>image/svg+xml</dc:format><dc:type
           rdf:resource="http://purl.org/dc/dcmitype/StillImage" /></cc:Work></rdf:RDF></metadata><defs
     id="defs53"><mask
       maskUnits="userSpaceOnUse"
       id="mask5043"><g
         id="g5045"><rect
           ry="16"
           y="140.23746"
           x="-76.194771"
           height="253.23557"
           width="319.34573"
           id="rect5047"
           style="opacity:1;fill:#ffffff;fill-opacity:1;fill-rule:evenodd;stroke:none;stroke-width:3;stroke-linejoin:round;stroke-miterlimit:4;stroke-dasharray:none;stroke-opacity:1" /><g
           style="fill:#000000;fill-opacity:1"
           id="g5049"><rect
             style="opacity:1;fill:#000000;fill-opacity:1;fill-rule:evenodd;stroke:none;stroke-width:3;stroke-linejoin:round;stroke-miterlimit:4;stroke-dasharray:none;stroke-opacity:1"
             id="rect5051"
             width="50"
             height="50"
             x="25"
             y="265.80899"
             ry="15.865773" /><rect
             style="opacity:1;fill:#000000;fill-opacity:1;fill-rule:evenodd;stroke:none;stroke-width:3;stroke-linejoin:round;stroke-miterlimit:4;stroke-dasharray:none;stroke-opacity:1"
             id="rect5053"
             width="50"
             height="50"
             x="100"
             y="190.80899"
             ry="15.865773" /><rect
             style="opacity:1;fill:#000000;fill-opacity:1;fill-rule:evenodd;stroke:none;stroke-width:3;stroke-linejoin:round;stroke-miterlimit:4;stroke-dasharray:none;stroke-opacity:1"
             id="rect5055"
             width="50"
             height="50"
             x="25"
             y="190.80899"
             ry="15.865773" /></g></g></mask></defs><sodipodi:namedview
     pagecolor="#ffffff"
     bordercolor="#666666"
     borderopacity="1"
     objecttolerance="10"
     gridtolerance="10"
     guidetolerance="10"
     inkscape:pageopacity="0"
     inkscape:pageshadow="2"
     inkscape:window-width="2560"
     inkscape:window-height="1011"
     id="namedview51"
     showgrid="false"
     inkscape:zoom="0.63105723"
     inkscape:cx="-400.11175"
     inkscape:cy="215.15122"
     inkscape:window-x="0"
     inkscape:window-y="30"
     inkscape:window-maximized="1"
     inkscape:current-layer="Layer_1" /><path
     opacity="0.5"
     fill="#FFFFFF"
     d="M34.004,340.809H2c-1.104,0-2-0.896-2-2V2c0-1.104,0.896-2,2-2h32.004c1.104,0,2,0.896,2,2  v7.71c0,1.104-0.896,2-2,2h-21.13v317.386h21.13c1.104,0,2,0.896,2,2.001v7.712C36.004,339.913,35.108,340.809,34.004,340.809  L34.004,340.809z"
     id="path3" /><path
     opacity="0.5"
     fill="#FFFFFF"
     d="M10.875,9.711v321.386h23.13v7.711H1.999V2.001h32.006v7.71H10.875z"
     id="path5" /><path
     opacity="0.5"
     fill="#FFFFFF"
     d="M791.322,340.809h-32.008c-1.105,0-2-0.896-2-2v-7.712c0-1.105,0.896-2.001,2-2.001h21.13  V11.71h-21.13c-1.105,0-2-0.896-2-2V2c0-1.104,0.896-2,2-2h32.008c1.104,0,2,0.896,2,2v336.809  C793.322,339.913,792.426,340.809,791.322,340.809L791.322,340.809z"
     id="path31" /><path
     opacity="0.5"
     fill="#FFFFFF"
     d="M782.443,331.097V9.711h-23.13v-7.71h32.008v336.807h-32.008v-7.711H782.443z"
     id="path33" /><path
     d="M10.875,9.711v321.386h23.13v7.711H1.999V2.001h32.006v7.71H10.875z"
     id="path35" /><path
     d="M782.443,331.097V9.711h-23.13v-7.71h32.008v336.807h-32.008v-7.711H782.443z"
     id="path49" /><g
     transform="translate(-40.338405,-39.217897)"
     style="font-style:normal;font-weight:normal;font-size:40px;line-height:125%;font-family:sans-serif;letter-spacing:0px;word-spacing:0px;fill:#000000;fill-opacity:1;stroke:none;stroke-width:1px;stroke-linecap:butt;stroke-linejoin:miter;stroke-opacity:1"
     id="flowRoot4159"><path
       d="m 193.38037,310.34692 q 0,12.43652 -8.74512,12.43652 -5.49316,0 -7.38281,-4.13086 l -0.10986,0 q 0.0879,0.17578 0.0879,3.73535 l 0,9.29444 -3.95508,0 0,-28.25684 q 0,-3.66943 -0.13184,-4.85596 l 3.82325,0 q 0.022,0.0879 0.0659,0.63721 0.0439,0.52734 0.0879,1.64795 0.0659,1.1206 0.0659,1.53808 l 0.0879,0 q 1.05469,-2.19726 2.79053,-3.208 1.73584,-1.03272 4.57031,-1.03272 4.39454,0 6.56983,2.94434 2.17529,2.94433 2.17529,9.25049 z m -4.15283,0.0879 q 0,-4.96582 -1.34033,-7.09717 -1.34034,-2.13135 -4.2627,-2.13135 -2.35107,0 -3.6914,0.98877 -1.31836,0.98877 -2.02149,3.09815 -0.68115,2.0874 -0.68115,5.44921 0,4.68018 1.49414,6.89942 1.49414,2.21924 4.85596,2.21924 2.94433,0 4.28466,-2.15332 1.36231,-2.1753 1.36231,-7.27295 z"
       style="font-size:45px;text-align:center;letter-spacing:10px;text-anchor:middle"
       id="path4155" /><path
       d="m 228.4292,310.43481 q 0,6.24023 -2.74658,9.29443 -2.74658,3.0542 -7.97608,3.0542 -5.20752,0 -7.86621,-3.16406 -2.65869,-3.18604 -2.65869,-9.18457 0,-12.30469 10.65674,-12.30469 5.44922,0 8.02002,3.01025 2.5708,2.98828 2.5708,9.29444 z m -4.15283,0 q 0,-4.92188 -1.47217,-7.14112 -1.4502,-2.24121 -4.8999,-2.24121 -3.47168,0 -5.03174,2.28516 -1.53809,2.26318 -1.53809,7.09717 0,4.70215 1.51612,7.07519 1.53808,2.35108 4.81201,2.35108 3.55957,0 5.07568,-2.28516 1.53809,-2.28516 1.53809,-7.14111 z"
       style="font-size:45px;text-align:center;letter-spacing:10px;text-anchor:middle"
       id="path4157" /><path
       d="m 266.13672,322.34399 -4.59229,0 -4.15283,-16.80909 -0.79101,-3.71337 q -0.19776,0.98876 -0.61524,2.85644 -0.41748,1.8457 -4.48242,17.66602 l -4.57031,0 -6.65772,-23.77442 3.91114,0 4.02099,16.1499 q 0.15381,0.52735 0.94483,4.35059 l 0.37353,-1.62598 4.96582,-18.87451 4.24072,0 4.15284,16.32569 1.01074,4.1748 0.68115,-3.0542 4.50439,-17.44629 3.86719,0 -6.81152,23.77442 z"
       style="font-size:45px;text-align:center;letter-spacing:10px;text-anchor:middle"
       id="path4159" /><path
       d="m 288.9248,311.29174 q 0,4.08691 1.6919,6.30615 1.69189,2.21924 4.94385,2.21924 2.5708,0 4.10888,-1.03271 1.56006,-1.03272 2.10938,-2.61475 l 3.47168,0.98877 q -2.13135,5.625 -9.68994,5.625 -5.27344,0 -8.042,-3.14209 -2.74658,-3.14209 -2.74658,-9.33838 0,-5.88867 2.74658,-9.03076 2.76856,-3.14209 7.88819,-3.14209 10.48096,0 10.48096,12.63428 l 0,0.52734 -16.9629,0 z m 12.87598,-3.03223 q -0.32959,-3.75732 -1.91162,-5.47119 -1.58203,-1.73584 -4.54834,-1.73584 -2.87842,0 -4.57031,1.9336 -1.66992,1.91162 -1.80176,5.27343 l 12.83203,0 z"
       style="font-size:45px;text-align:center;letter-spacing:10px;text-anchor:middle"
       id="path4161" /><path
       d="m 321.0293,322.34399 0,-18.23731 q 0,-2.50488 -0.13184,-5.53711 l 3.73535,0 q 0.17578,4.04297 0.17578,4.85596 l 0.0879,0 q 0.94483,-3.0542 2.1753,-4.17481 1.23047,-1.1206 3.47168,-1.1206 0.79101,0 1.604,0.21973 l 0,3.62548 q -0.79101,-0.21972 -2.10937,-0.21972 -2.46094,0 -3.75733,2.13135 -1.29639,2.10937 -1.29639,6.06445 l 0,12.39258 -3.95507,0 z"
       style="font-size:45px;text-align:center;letter-spacing:10px;text-anchor:middle"
       id="path4163" /><path
       d="m 349.00293,311.29174 q 0,4.08691 1.69189,6.30615 1.6919,2.21924 4.94385,2.21924 2.5708,0 4.10889,-1.03271 1.56006,-1.03272 2.10937,-2.61475 l 3.47168,0.98877 q -2.13134,5.625 -9.68994,5.625 -5.27344,0 -8.04199,-3.14209 -2.74658,-3.14209 -2.74658,-9.33838 0,-5.88867 2.74658,-9.03076 2.76855,-3.14209 7.88818,-3.14209 10.48096,0 10.48096,12.63428 l 0,0.52734 -16.96289,0 z m 12.87598,-3.03223 q -0.32959,-3.75732 -1.91162,-5.47119 -1.58204,-1.73584 -4.54834,-1.73584 -2.87842,0 -4.57032,1.9336 -1.66992,1.91162 -1.80176,5.27343 l 12.83204,0 z"
       style="font-size:45px;text-align:center;letter-spacing:10px;text-anchor:middle"
       id="path4165" /><path
       d="m 396.02686,318.52074 q -1.09864,2.28516 -2.92237,3.27393 -1.80176,0.98877 -4.48242,0.98877 -4.50439,0 -6.63574,-3.03223 -2.10938,-3.03222 -2.10938,-9.18457 0,-12.43652 8.74512,-12.43652 2.70264,0 4.50439,0.98877 1.80176,0.98877 2.9004,3.14209 l 0.0439,0 -0.0439,-2.65869 0,-9.86573 3.95507,0 0,27.70752 q 0,3.71338 0.13184,4.89991 l -3.7793,0 q -0.0659,-0.35157 -0.15381,-1.62598 -0.0659,-1.27441 -0.0659,-2.19727 l -0.0879,0 z m -11.99707,-8.08593 q 0,4.98779 1.31835,7.14111 1.31836,2.15332 4.28467,2.15332 3.36182,0 4.87793,-2.3291 1.51612,-2.3291 1.51612,-7.22901 0,-4.72412 -1.51612,-6.92138 -1.51611,-2.19727 -4.83398,-2.19727 -2.98828,0 -4.32862,2.21924 -1.31835,2.19727 -1.31835,7.16309 z"
       style="font-size:45px;text-align:center;letter-spacing:10px;text-anchor:middle"
       id="path4167" /><path
       d="m 458.65381,310.34692 q 0,12.43652 -8.74512,12.43652 -2.70264,0 -4.50439,-0.9668 -1.77979,-0.98877 -2.90039,-3.16406 l -0.0439,0 q 0,0.68115 -0.0879,2.0874 -0.0879,1.38428 -0.13184,1.60401 l -3.82324,0 q 0.13184,-1.18653 0.13184,-4.89991 l 0,-27.70752 3.95508,0 0,9.29444 q 0,1.42822 -0.0879,3.36181 l 0.0879,0 q 1.09863,-2.28515 2.90039,-3.27392 1.82373,-0.98877 4.50439,-0.98877 4.5044,0 6.61377,3.03223 2.13135,3.03222 2.13135,9.18457 z m -4.15283,0.13183 q 0,-4.98779 -1.31836,-7.14111 -1.31836,-2.15332 -4.28467,-2.15332 -3.33984,0 -4.87793,2.28515 -1.51611,2.28516 -1.51611,7.25098 0,4.68018 1.49414,6.92139 1.49414,2.21924 4.85595,2.21924 2.98829,0 4.30664,-2.19727 1.34034,-2.21924 1.34034,-7.18506 z"
       style="font-size:45px;text-align:center;letter-spacing:10px;text-anchor:middle"
       id="path4169" /><path
       d="m 474.76221,331.68237 q -1.62598,0 -2.72461,-0.2417 l 0,-2.96631 q 0.83496,0.13183 1.8457,0.13183 3.69141,0 5.84473,-5.42724 l 0.37353,-0.94483 -9.42627,-23.66455 4.21875,0 5.00977,13.13965 q 0.10986,0.30762 0.26367,0.74707 0.15381,0.41748 0.98877,2.85645 0.83496,2.43896 0.90088,2.72461 l 1.53808,-4.32862 5.20752,-15.13916 4.17481,0 -9.14063,23.77442 q -1.47216,3.80127 -2.74658,5.64697 -1.27441,1.86767 -2.83447,2.76855 -1.53809,0.92286 -3.49365,0.92286 z"
       style="font-size:45px;text-align:center;letter-spacing:10px;text-anchor:middle"
       id="path4171" /><path
       d="m 542.4209,322.34399 0,-15.07325 q 0,-3.4497 -0.94483,-4.76806 -0.94482,-1.31836 -3.40576,-1.31836 -2.52685,0 -3.99902,1.93359 -1.47217,1.9336 -1.47217,5.44922 l 0,13.77686 -3.9331,0 0,-18.69873 q 0,-4.15284 -0.13184,-5.07569 l 3.73535,0 q 0.022,0.10987 0.0439,0.59326 0.022,0.4834 0.0439,1.12061 0.0439,0.61523 0.0879,2.35107 l 0.0659,0 q 1.27441,-2.52685 2.92236,-3.51562 1.64795,-0.98877 4.021,-0.98877 2.70264,0 4.2627,1.07666 1.58203,1.07666 2.19726,3.42773 l 0.0659,0 q 1.23047,-2.39502 2.96631,-3.4497 1.75781,-1.05469 4.24072,-1.05469 3.60352,0 5.22949,1.95557 1.64795,1.95556 1.64795,6.41601 l 0,15.84229 -3.91113,0 0,-15.07325 q 0,-3.4497 -0.94483,-4.76806 -0.94482,-1.31836 -3.40576,-1.31836 -2.59277,0 -4.04297,1.93359 -1.42822,1.91162 -1.42822,5.44922 l 0,13.77686 -3.91113,0 z"
       style="font-size:45px;text-align:center;letter-spacing:10px;text-anchor:middle"
       id="path4173" /><path
       d="m 582.17187,322.78344 q -3.58154,0 -5.3833,-1.88965 -1.80175,-1.88965 -1.80175,-5.18555 0,-3.6914 2.41699,-5.66894 2.43896,-1.97754 7.84424,-2.10938 l 5.33935,-0.0879 0,-1.29638 q 0,-2.90039 -1.23047,-4.15284 -1.23047,-1.25244 -3.86718,-1.25244 -2.6587,0 -3.86719,0.90088 -1.2085,0.90088 -1.4502,2.87842 l -4.13086,-0.37354 q 1.01075,-6.41601 9.53614,-6.41601 4.48242,0 6.7456,2.06543 2.26319,2.04346 2.26319,5.93262 l 0,10.23925 q 0,1.75782 0.46142,2.6587 0.46143,0.8789 1.75781,0.8789 0.57129,0 1.29639,-0.15381 l 0,2.46094 q -1.49414,0.35156 -3.0542,0.35156 -2.19726,0 -3.20801,-1.14258 -0.98877,-1.16455 -1.1206,-3.62548 l -0.13184,0 q -1.51611,2.72461 -3.5376,3.86718 -1.99951,1.12061 -4.87793,1.12061 z m 0.90088,-2.96631 q 2.1753,0 3.86719,-0.98877 1.6919,-0.98877 2.65869,-2.70264 0.98877,-1.73584 0.98877,-3.55957 l 0,-1.95556 -4.32861,0.0879 q -2.79053,0.0439 -4.24072,0.57129 -1.42823,0.52734 -2.19727,1.62597 -0.76904,1.09864 -0.76904,2.87842 0,1.9336 1.03271,2.98828 1.05469,1.05469 2.98828,1.05469 z"
       style="font-size:45px;text-align:center;letter-spacing:10px;text-anchor:middle"
       id="path4175" /><path
       d="m 620.29687,322.16821 q -1.95556,0.52734 -3.99902,0.52734 -4.74609,0 -4.74609,-5.3833 l 0,-15.86426 -2.74658,0 0,-2.87842 2.90039,0 1.16455,-5.31738 2.63672,0 0,5.31738 4.39453,0 0,2.87842 -4.39453,0 0,15.00732 q 0,1.71387 0.54931,2.417 0.57129,0.68115 1.95557,0.68115 0.79101,0 2.28515,-0.30762 l 0,2.92237 z"
       style="font-size:45px;text-align:center;letter-spacing:10px;text-anchor:middle"
       id="path4177" /><path
       d="m 633.72461,322.34399 0,-18.23731 q 0,-2.50488 -0.13184,-5.53711 l 3.73535,0 q 0.17579,4.04297 0.17579,4.85596 l 0.0879,0 q 0.94482,-3.0542 2.17529,-4.17481 1.23047,-1.1206 3.47168,-1.1206 0.79102,0 1.604,0.21973 l 0,3.62548 q -0.79101,-0.21972 -2.10937,-0.21972 -2.46094,0 -3.75733,2.13135 -1.29638,2.10937 -1.29638,6.06445 l 0,12.39258 -3.95508,0 z"
       style="font-size:45px;text-align:center;letter-spacing:10px;text-anchor:middle"
       id="path4179" /><path
       d="m 658.64404,293.51586 0,-3.7793 3.95508,0 0,3.7793 -3.95508,0 z m 0,28.82813 0,-23.77442 3.95508,0 0,23.77442 -3.95508,0 z"
       style="font-size:45px;text-align:center;letter-spacing:10px;text-anchor:middle"
       id="path4181" /><path
       d="m 693.25342,322.34399 -6.39405,-9.75586 -6.43798,9.75586 -4.2627,0 8.45947,-12.2168 -8.06396,-11.55762 4.37256,0 5.93261,9.25049 5.88868,-9.25049 4.4165,0 -8.06396,11.51367 8.56933,12.26075 -4.4165,0 z"
       style="font-size:45px;text-align:center;letter-spacing:10px;text-anchor:middle"
       id="path4183" /></g><g
     transform="translate(123.25625,-43.996569)"
     style="font-style:normal;font-weight:normal;font-size:5px;line-height:125%;font-family:Sans;letter-spacing:0px;word-spacing:0px;fill:#000000;fill-opacity:1;stroke:none;stroke-width:1px;stroke-linecap:butt;stroke-linejoin:miter;stroke-opacity:1"
     id="flowRoot4156"><path
       d="m 191.61963,153.56777 q 4.21142,-7.56836 10.0708,-11.16944 5.85937,-3.60107 13.79394,-3.60107 10.68116,0 16.4795,7.50732 5.79834,7.44629 5.79834,21.24024 l 0,41.25976 -11.29151,0 0,-40.89355 q 0,-9.82666 -3.479,-14.5874 -3.479,-4.76075 -10.62012,-4.76075 -8.72803,0 -13.79394,5.79834 -5.06592,5.79834 -5.06592,15.80811 l 0,38.63525 -11.29151,0 0,-40.89355 q 0,-9.8877 -3.479,-14.5874 -3.479,-4.76075 -10.74219,-4.76075 -8.60595,0 -13.67187,5.85938 -5.06592,5.79834 -5.06592,15.74707 l 0,38.63525 -11.2915,0 0,-68.35937 11.2915,0 0,10.62011 q 3.84522,-6.28662 9.21631,-9.27734 5.37109,-2.99072 12.75635,-2.99072 7.44629,0 12.63427,3.78418 5.24903,3.78418 7.75147,10.98633 z"
       style="font-size:125px"
       id="path5090" /><path
       d="m 317.04687,140.44521 -24.71923,33.26416 26.00097,35.09521 -13.24463,0 -19.89746,-26.85547 -19.89746,26.85547 -13.24463,0 26.5503,-35.7666 -24.292,-32.59277 13.24463,0 18.12744,24.35302 18.12745,-24.35302 13.24462,0 z"
       style="font-size:125px"
       id="path5092" /><path
       d="m 365.26465,174.44179 q -13.61084,0 -18.85986,3.11279 -5.24903,3.1128 -5.24903,10.62012 0,5.98145 3.90625,9.52148 3.96729,3.47901 10.74219,3.47901 9.33838,0 14.95361,-6.5918 5.67627,-6.65283 5.67627,-17.63916 l 0,-2.50244 -11.16943,0 z m 22.3999,-4.63867 0,39.00146 -11.23047,0 0,-10.37597 q -3.84521,6.22558 -9.58252,9.2163 -5.7373,2.92969 -14.03808,2.92969 -10.49805,0 -16.72364,-5.85937 -6.16455,-5.92041 -6.16455,-15.80811 0,-11.53564 7.69043,-17.39502 7.75147,-5.85937 23.07129,-5.85937 l 15.74707,0 0,-1.09864 q 0,-7.75146 -5.12695,-11.96289 -5.06592,-4.27246 -14.28223,-4.27246 -5.85937,0 -11.41357,1.40381 -5.5542,1.40381 -10.68115,4.21143 l 0,-10.37598 q 6.16455,-2.38037 11.96289,-3.54004 5.79834,-1.2207 11.2915,-1.2207 14.83154,0 22.15576,7.69043 7.32422,7.69043 7.32422,23.31543 z"
       style="font-size:125px"
       id="path5094" /><path
       d="m 421.72217,198.55068 0,36.25488 -11.29151,0 0,-94.36035 11.29151,0 0,10.37597 q 3.54004,-6.10351 8.91113,-9.0332 5.43213,-2.99072 12.93945,-2.99072 12.45118,0 20.20264,9.88769 7.8125,9.8877 7.8125,26.00098 0,16.11328 -7.8125,26.00098 -7.75146,9.88769 -20.20264,9.88769 -7.50732,0 -12.93945,-2.92969 -5.37109,-2.99072 -8.91113,-9.09423 z m 38.20801,-23.86475 q 0,-12.39014 -5.12696,-19.40918 -5.06592,-7.08008 -13.97705,-7.08008 -8.91113,0 -14.03808,7.08008 -5.06592,7.01904 -5.06592,19.40918 0,12.39014 5.06592,19.47022 5.12695,7.01904 14.03808,7.01904 8.91113,0 13.97705,-7.01904 5.12696,-7.08008 5.12696,-19.47022 z"
       style="font-size:125px"
       id="path5096" /><path
       d="m 501.06787,198.55068 0,36.25488 -11.2915,0 0,-94.36035 11.2915,0 0,10.37597 q 3.54004,-6.10351 8.91113,-9.0332 5.43213,-2.99072 12.93946,-2.99072 12.45117,0 20.20263,9.88769 7.8125,9.8877 7.8125,26.00098 0,16.11328 -7.8125,26.00098 -7.75146,9.88769 -20.20263,9.88769 -7.50733,0 -12.93946,-2.92969 -5.37109,-2.99072 -8.91113,-9.09423 z m 38.20801,-23.86475 q 0,-12.39014 -5.12695,-19.40918 -5.06592,-7.08008 -13.97706,-7.08008 -8.91113,0 -14.03808,7.08008 -5.06592,7.01904 -5.06592,19.40918 0,12.39014 5.06592,19.47022 5.12695,7.01904 14.03808,7.01904 8.91114,0 13.97706,-7.01904 5.12695,-7.08008 5.12695,-19.47022 z"
       style="font-size:125px"
       id="path5098" /><path
       d="m 613.12842,142.45937 0,10.62011 q -4.76074,-2.4414 -9.8877,-3.6621 -5.12695,-1.22071 -10.62011,-1.22071 -8.36182,0 -12.57325,2.56348 -4.15039,2.56348 -4.15039,7.69043 0,3.90625 2.99073,6.16455 2.99072,2.19727 12.02392,4.21143 l 3.84522,0.85449 q 11.96289,2.56347 16.96777,7.26318 5.06592,4.63867 5.06592,13.00049 0,9.52148 -7.56836,15.07568 -7.50733,5.5542 -20.69092,5.5542 -5.49316,0 -11.47461,-1.09863 -5.92041,-1.0376 -12.51221,-3.17383 l 0,-11.59668 q 6.22559,3.23486 12.26807,4.88281 6.04248,1.58692 11.96289,1.58692 7.93457,0 12.20703,-2.68555 4.27246,-2.74658 4.27246,-7.69043 0,-4.57764 -3.11279,-7.01904 -3.05176,-2.44141 -13.48877,-4.69971 l -3.90625,-0.91553 q -10.43701,-2.19726 -15.07568,-6.71386 -4.63868,-4.57764 -4.63868,-12.51221 0,-9.64355 6.83594,-14.89258 6.83594,-5.24902 19.40918,-5.24902 6.22559,0 11.71875,0.91553 5.49317,0.91552 10.13184,2.74658 z"
       style="font-size:125px"
       id="path5100" /></g><rect
     style="opacity:1;fill:none;fill-opacity:1;fill-rule:evenodd;stroke:#000000;stroke-width:3;stroke-linejoin:round;stroke-miterlimit:4;stroke-dasharray:none;stroke-opacity:1"
     id="rect4168-5"
     width="175"
     height="175"
     x="50"
     y="40.80899"
     ry="20"
     rx="20"
     clip-path="none" /><g
     id="g4366"
     style="stroke:none;stroke-opacity:1;fill:#000000;fill-opacity:1"><rect
       ry="10"
       rx="10"
       y="65.80899"
       x="75"
       height="50"
       width="50"
       id="rect4215"
       style="opacity:1;fill:#000000;fill-opacity:1;fill-rule:evenodd;stroke:none;stroke-width:3;stroke-linejoin:round;stroke-miterlimit:4;stroke-dasharray:none;stroke-opacity:1" /><rect
       ry="10"
       rx="10"
       y="65.80899"
       x="150"
       height="50"
       width="50"
       id="rect4215-3"
       style="opacity:1;fill:#000000;fill-opacity:1;fill-rule:evenodd;stroke:none;stroke-width:3;stroke-linejoin:round;stroke-miterlimit:4;stroke-dasharray:none;stroke-opacity:1" /><rect
       ry="10"
       rx="10"
       y="140.80899"
       x="75"
       height="50"
       width="50"
       id="rect4215-5"
       style="opacity:1;fill:#000000;fill-opacity:1;fill-rule:evenodd;stroke:none;stroke-width:3;stroke-linejoin:round;stroke-miterlimit:4;stroke-dasharray:none;stroke-opacity:1" /></g></svg>