<?xml version="1.0" encoding="UTF-8" standalone="no"?>
<!-- Created with Inkscape (http://www.inkscape.org/) -->

<svg
   xmlns:dc="http://purl.org/dc/elements/1.1/"
   xmlns:cc="http://creativecommons.org/ns#"
   xmlns:rdf="http://www.w3.org/1999/02/22-rdf-syntax-ns#"
   xmlns:svg="http://www.w3.org/2000/svg"
   xmlns="http://www.w3.org/2000/svg"
   xmlns:xlink="http://www.w3.org/1999/xlink"
   xmlns:sodipodi="http://sodipodi.sourceforge.net/DTD/sodipodi-0.dtd"
   xmlns:inkscape="http://www.inkscape.org/namespaces/inkscape"
   width="175"
   height="175"
   viewBox="0 0 175 175"
   id="svg4400"
   version="1.1"
   inkscape:version="0.91 r13725"
   sodipodi:docname="apps icon.svg"
   inkscape:export-filename="/home/npennie/Programming/Projects/matrix-collaboration/matrix-apps/public/favicon-16x16.png"
   inkscape:export-xdpi="8.228569"
   inkscape:export-ydpi="8.228569">
  <defs
     id="defs4402">
    <linearGradient
       gradientTransform="translate(461.83947,1315.1152)"
       inkscape:collect="always"
       xlink:href="#linearGradient4379"
       id="linearGradient4385"
       x1="-455.50092"
       y1="-419.97726"
       x2="-290.00876"
       y2="-256.75909"
       gradientUnits="userSpaceOnUse" />
    <linearGradient
       inkscape:collect="always"
       id="linearGradient4379">
      <stop
         style="stop-color:#2c4be8;stop-opacity:1"
         offset="0"
         id="stop4381" />
      <stop
         style="stop-color:#812ce8;stop-opacity:1"
         offset="1"
         id="stop4383" />
    </linearGradient>
  </defs>
  <sodipodi:namedview
     id="base"
     pagecolor="#ffffff"
     bordercolor="#666666"
     borderopacity="1.0"
     inkscape:pageopacity="0.0"
     inkscape:pageshadow="2"
     inkscape:zoom="1.4"
     inkscape:cx="-158.41126"
     inkscape:cy="134.52991"
     inkscape:document-units="px"
     inkscape:current-layer="layer1"
     showgrid="false"
     units="px"
     inkscape:window-width="2560"
     inkscape:window-height="1011"
     inkscape:window-x="0"
     inkscape:window-y="30"
     inkscape:window-maximized="1" />
  <metadata
     id="metadata4405">
    <rdf:RDF>
      <cc:Work
         rdf:about="">
        <dc:format>image/svg+xml</dc:format>
        <dc:type
           rdf:resource="http://purl.org/dc/dcmitype/StillImage" />
        <dc:title></dc:title>
      </cc:Work>
    </rdf:RDF>
  </metadata>
  <g
     inkscape:label="Layer 1"
     inkscape:groupmode="layer"
     id="layer1"
     transform="translate(0,-877.36216)">
    <rect
       style="opacity:1;fill:#ffffff;fill-opacity:1;fill-rule:evenodd;stroke:none;stroke-width:3;stroke-linejoin:round;stroke-miterlimit:4;stroke-dasharray:none;stroke-opacity:1"
       id="rect4138"
       width="150"
       height="152.85715"
       x="15.714286"
       y="890.93359"
       rx="10"
       ry="10"
       inkscape:export-filename="/home/npennie/Programming/Projects/matrix-collaboration/matrix-apps/public/img/icons/favicon.png"
       inkscape:export-xdpi="49.371414"
       inkscape:export-ydpi="49.371414" />
    <path
       style="opacity:1;fill:url(#linearGradient4385);fill-opacity:1;fill-rule:evenodd;stroke:none;stroke-width:3;stroke-linejoin:round;stroke-miterlimit:4;stroke-dasharray:none;stroke-opacity:1"
       clip-path="none"
       d="m 20,877.36216 c -11.08,0 -20,8.92 -20,20 l 0,135.00004 c 0,11.08 8.92,20 20,20 l 135,0 c 11.08,0 20,-8.92 20,-20 l 0,-135.00004 c 0,-11.08 -8.92,-20 -20,-20 l -135,0 z m 14,25 30,0 c 5.54,0 10,4.46 10,10 l 0,30 c 0,5.54 -4.46,10 -10,10 l -30,0 c -5.54,0 -10,-4.46 -10,-10 l 0,-30 c 0,-5.54 4.46,-10 10,-10 z m 76,0 30,0 c 5.54,0 10,4.46 10,10 l 0,30 c 0,5.54 -4.46,10 -10,10 l -30,0 c -5.54,0 -10,-4.46 -10,-10 l 0,-30 c 0,-5.54 4.46,-10 10,-10 z m -75,75 30,0 c 5.54,0 10,4.46 10,10 l 0,30.00004 c 0,5.54 -4.46,10 -10,10 l -30,0 c -5.54,0 -10,-4.46 -10,-10 l 0,-30.00004 c 0,-5.54 4.46,-10 10,-10 z"
       id="rect4168"
       inkscape:connector-curvature="0"
       inkscape:export-filename="/home/npennie/Programming/Projects/matrix-collaboration/matrix-apps/public/img/icons/favicon.png"
       inkscape:export-xdpi="49.371414"
       inkscape:export-ydpi="49.371414" />
  </g>
</svg>
